%TF.GenerationSoftware,KiCad,Pcbnew,9.0.0*%
%TF.CreationDate,2025-04-21T14:47:56+01:00*%
%TF.ProjectId,ESP32_Cnc_Shield,45535033-325f-4436-9e63-5f536869656c,rev?*%
%TF.SameCoordinates,Original*%
%TF.FileFunction,Soldermask,Top*%
%TF.FilePolarity,Negative*%
%FSLAX46Y46*%
G04 Gerber Fmt 4.6, Leading zero omitted, Abs format (unit mm)*
G04 Created by KiCad (PCBNEW 9.0.0) date 2025-04-21 14:47:56*
%MOMM*%
%LPD*%
G01*
G04 APERTURE LIST*
G04 Aperture macros list*
%AMRoundRect*
0 Rectangle with rounded corners*
0 $1 Rounding radius*
0 $2 $3 $4 $5 $6 $7 $8 $9 X,Y pos of 4 corners*
0 Add a 4 corners polygon primitive as box body*
4,1,4,$2,$3,$4,$5,$6,$7,$8,$9,$2,$3,0*
0 Add four circle primitives for the rounded corners*
1,1,$1+$1,$2,$3*
1,1,$1+$1,$4,$5*
1,1,$1+$1,$6,$7*
1,1,$1+$1,$8,$9*
0 Add four rect primitives between the rounded corners*
20,1,$1+$1,$2,$3,$4,$5,0*
20,1,$1+$1,$4,$5,$6,$7,0*
20,1,$1+$1,$6,$7,$8,$9,0*
20,1,$1+$1,$8,$9,$2,$3,0*%
G04 Aperture macros list end*
%ADD10R,1.700000X1.700000*%
%ADD11O,1.700000X1.700000*%
%ADD12RoundRect,0.250000X1.500000X0.550000X-1.500000X0.550000X-1.500000X-0.550000X1.500000X-0.550000X0*%
%ADD13RoundRect,0.250000X-0.550000X1.500000X-0.550000X-1.500000X0.550000X-1.500000X0.550000X1.500000X0*%
%ADD14C,2.500000*%
%ADD15RoundRect,0.250000X0.600000X0.725000X-0.600000X0.725000X-0.600000X-0.725000X0.600000X-0.725000X0*%
%ADD16O,1.700000X1.950000*%
%ADD17RoundRect,0.250000X0.600000X0.750000X-0.600000X0.750000X-0.600000X-0.750000X0.600000X-0.750000X0*%
%ADD18O,1.700000X2.000000*%
%ADD19R,0.900000X2.000000*%
%ADD20R,2.000000X0.900000*%
%ADD21R,5.000000X5.000000*%
%ADD22C,0.999997*%
%ADD23R,0.700000X1.300000*%
%ADD24R,1.447800X1.651000*%
%ADD25R,1.447800X2.438400*%
%ADD26R,1.854200X1.651000*%
%ADD27RoundRect,0.237500X-0.250000X-0.237500X0.250000X-0.237500X0.250000X0.237500X-0.250000X0.237500X0*%
%ADD28R,1.100000X4.600000*%
%ADD29R,10.800000X9.400000*%
%ADD30RoundRect,0.250000X-1.050000X-1.050000X1.050000X-1.050000X1.050000X1.050000X-1.050000X1.050000X0*%
%ADD31C,2.600000*%
%ADD32RoundRect,0.250000X-1.000000X1.950000X-1.000000X-1.950000X1.000000X-1.950000X1.000000X1.950000X0*%
%ADD33R,3.150000X12.500000*%
%ADD34RoundRect,0.225000X0.225000X0.250000X-0.225000X0.250000X-0.225000X-0.250000X0.225000X-0.250000X0*%
%ADD35R,1.100000X1.100000*%
G04 APERTURE END LIST*
D10*
%TO.C,J11*%
X103505000Y-136510000D03*
D11*
X103505000Y-133970000D03*
X103505000Y-131430000D03*
%TD*%
D12*
%TO.C,C6*%
X119600000Y-134370000D03*
X114000000Y-134370000D03*
%TD*%
D13*
%TO.C,C2*%
X97050000Y-108890000D03*
X97050000Y-114290000D03*
%TD*%
D14*
%TO.C,H2*%
X52250000Y-77500000D03*
%TD*%
D15*
%TO.C,J17*%
X89360000Y-145530000D03*
D16*
X86860000Y-145530000D03*
X84360000Y-145530000D03*
X81860000Y-145530000D03*
%TD*%
D14*
%TO.C,H4*%
X122500000Y-147500000D03*
%TD*%
D12*
%TO.C,C4*%
X71200000Y-134020000D03*
X65600000Y-134020000D03*
%TD*%
D17*
%TO.C,J2*%
X74990000Y-145490000D03*
D18*
X72490000Y-145490000D03*
%TD*%
D19*
%TO.C,U1*%
X52070000Y-122800000D03*
X53340000Y-122800000D03*
X54610000Y-122800000D03*
X55880000Y-122800000D03*
X57150000Y-122800000D03*
X58420000Y-122800000D03*
X59690000Y-122800000D03*
X60960000Y-122800000D03*
X62230000Y-122800000D03*
X63500000Y-122800000D03*
X64770000Y-122800000D03*
X66040000Y-122800000D03*
X67310000Y-122800000D03*
X68580000Y-122800000D03*
D20*
X69580000Y-120015000D03*
X69580000Y-118745000D03*
X69580000Y-117475000D03*
X69580000Y-116205000D03*
X69580000Y-114935000D03*
X69580000Y-113665000D03*
X69580000Y-112395000D03*
X69580000Y-111125000D03*
X69580000Y-109855000D03*
X69580000Y-108585000D03*
D19*
X68580000Y-105800000D03*
X67310000Y-105800000D03*
X66040000Y-105800000D03*
X64770000Y-105800000D03*
X63500000Y-105800000D03*
X62230000Y-105800000D03*
X60960000Y-105800000D03*
X59690000Y-105800000D03*
X58420000Y-105800000D03*
X57150000Y-105800000D03*
X55880000Y-105800000D03*
X54610000Y-105800000D03*
X53340000Y-105800000D03*
X52070000Y-105800000D03*
D21*
X59570000Y-115300000D03*
%TD*%
D22*
%TO.C,MICRO_SD1*%
X67483800Y-79039400D03*
X59508200Y-79039400D03*
D23*
X60250200Y-89743800D03*
X61350200Y-89743800D03*
X62450200Y-89743800D03*
X63550200Y-89743800D03*
X64650200Y-89743800D03*
X65750200Y-89743800D03*
X66850200Y-89743800D03*
X67950200Y-89743800D03*
X69050200Y-89743800D03*
D24*
X70468600Y-88970000D03*
D25*
X70468600Y-79270000D03*
X54643800Y-79270000D03*
D26*
X55418800Y-88970000D03*
%TD*%
D10*
%TO.C,J13*%
X118745000Y-127620000D03*
D11*
X116205000Y-127620000D03*
X113665000Y-127620000D03*
X111125000Y-127620000D03*
X108585000Y-127620000D03*
X106045000Y-127620000D03*
X103505000Y-127620000D03*
X100965000Y-127620000D03*
%TD*%
D27*
%TO.C,R11*%
X91000000Y-82480000D03*
X92825000Y-82480000D03*
%TD*%
D10*
%TO.C,J10*%
X100965000Y-136510000D03*
D11*
X100965000Y-133970000D03*
X100965000Y-131430000D03*
%TD*%
D10*
%TO.C,J4*%
X70485000Y-127620000D03*
D11*
X67945000Y-127620000D03*
X65405000Y-127620000D03*
X62865000Y-127620000D03*
X60325000Y-127620000D03*
X57785000Y-127620000D03*
X55245000Y-127620000D03*
X52705000Y-127620000D03*
%TD*%
D15*
%TO.C,J16*%
X113560000Y-145450000D03*
D16*
X111060000Y-145450000D03*
X108560000Y-145450000D03*
X106060000Y-145450000D03*
%TD*%
D28*
%TO.C,U2*%
X111880000Y-111075000D03*
X110180000Y-111075000D03*
X108480000Y-111075000D03*
D29*
X108480000Y-120225000D03*
D28*
X106780000Y-111075000D03*
X105080000Y-111075000D03*
%TD*%
D10*
%TO.C,J15*%
X94615000Y-140320000D03*
D11*
X92075000Y-140320000D03*
X89535000Y-140320000D03*
X86995000Y-140320000D03*
X84455000Y-140320000D03*
X81915000Y-140320000D03*
X79375000Y-140320000D03*
X76835000Y-140320000D03*
%TD*%
D10*
%TO.C,J12*%
X94615000Y-127620000D03*
D11*
X92075000Y-127620000D03*
X89535000Y-127620000D03*
X86995000Y-127620000D03*
X84455000Y-127620000D03*
X81915000Y-127620000D03*
X79375000Y-127620000D03*
X76835000Y-127620000D03*
%TD*%
D30*
%TO.C,J1*%
X95315000Y-146912500D03*
D31*
X100395000Y-146912500D03*
%TD*%
D27*
%TO.C,R13*%
X74487500Y-82620000D03*
X76312500Y-82620000D03*
%TD*%
D17*
%TO.C,J21*%
X76750000Y-78750000D03*
D18*
X74250000Y-78750000D03*
%TD*%
D12*
%TO.C,C5*%
X95210000Y-133980000D03*
X89610000Y-133980000D03*
%TD*%
D32*
%TO.C,C1*%
X120545000Y-111245000D03*
X120545000Y-118645000D03*
%TD*%
D15*
%TO.C,J6*%
X65450000Y-145410000D03*
D16*
X62950000Y-145410000D03*
X60450000Y-145410000D03*
X57950000Y-145410000D03*
%TD*%
D17*
%TO.C,J20*%
X101175000Y-78800000D03*
D18*
X98675000Y-78800000D03*
%TD*%
D33*
%TO.C,L1*%
X109805000Y-95260000D03*
X94455000Y-95260000D03*
%TD*%
D10*
%TO.C,J3*%
X52705000Y-136510000D03*
D11*
X52705000Y-133970000D03*
X52705000Y-131430000D03*
%TD*%
D17*
%TO.C,J24*%
X109380000Y-78790000D03*
D18*
X106880000Y-78790000D03*
%TD*%
D14*
%TO.C,H3*%
X52500000Y-147500000D03*
%TD*%
D34*
%TO.C,C7*%
X84462500Y-81210000D03*
X82912500Y-81210000D03*
%TD*%
D13*
%TO.C,C3*%
X88160000Y-109070000D03*
X88160000Y-114470000D03*
%TD*%
D10*
%TO.C,J9*%
X79375000Y-136510000D03*
D11*
X79375000Y-133970000D03*
X79375000Y-131430000D03*
%TD*%
D34*
%TO.C,C9*%
X100552500Y-81230000D03*
X99002500Y-81230000D03*
%TD*%
%TO.C,C10*%
X76207500Y-81200000D03*
X74657500Y-81200000D03*
%TD*%
D17*
%TO.C,J18*%
X84877500Y-78760000D03*
D18*
X82377500Y-78760000D03*
%TD*%
D27*
%TO.C,R10*%
X82667500Y-82650000D03*
X84492500Y-82650000D03*
%TD*%
D34*
%TO.C,C8*%
X92705000Y-81170000D03*
X91155000Y-81170000D03*
%TD*%
D14*
%TO.C,H1*%
X122500000Y-77500000D03*
%TD*%
D10*
%TO.C,J5*%
X70485000Y-140320000D03*
D11*
X67945000Y-140320000D03*
X65405000Y-140320000D03*
X62865000Y-140320000D03*
X60325000Y-140320000D03*
X57785000Y-140320000D03*
X55245000Y-140320000D03*
X52705000Y-140320000D03*
%TD*%
D35*
%TO.C,D1*%
X109880000Y-105420000D03*
X107080000Y-105420000D03*
%TD*%
D10*
%TO.C,J14*%
X118745000Y-140320000D03*
D11*
X116205000Y-140320000D03*
X113665000Y-140320000D03*
X111125000Y-140320000D03*
X108585000Y-140320000D03*
X106045000Y-140320000D03*
X103505000Y-140320000D03*
X100965000Y-140320000D03*
%TD*%
D10*
%TO.C,J8*%
X76835000Y-136510000D03*
D11*
X76835000Y-133970000D03*
X76835000Y-131430000D03*
%TD*%
D27*
%TO.C,R12*%
X98877500Y-82610000D03*
X100702500Y-82610000D03*
%TD*%
D17*
%TO.C,J25*%
X117550000Y-78810000D03*
D18*
X115050000Y-78810000D03*
%TD*%
D17*
%TO.C,J19*%
X93002500Y-78770000D03*
D18*
X90502500Y-78770000D03*
%TD*%
D10*
%TO.C,J7*%
X55245000Y-136510000D03*
D11*
X55245000Y-133970000D03*
X55245000Y-131430000D03*
%TD*%
M02*
