%TF.GenerationSoftware,KiCad,Pcbnew,9.0.0*%
%TF.CreationDate,2025-04-21T14:47:56+01:00*%
%TF.ProjectId,ESP32_Cnc_Shield,45535033-325f-4436-9e63-5f536869656c,rev?*%
%TF.SameCoordinates,Original*%
%TF.FileFunction,Paste,Top*%
%TF.FilePolarity,Positive*%
%FSLAX46Y46*%
G04 Gerber Fmt 4.6, Leading zero omitted, Abs format (unit mm)*
G04 Created by KiCad (PCBNEW 9.0.0) date 2025-04-21 14:47:56*
%MOMM*%
%LPD*%
G01*
G04 APERTURE LIST*
G04 Aperture macros list*
%AMRoundRect*
0 Rectangle with rounded corners*
0 $1 Rounding radius*
0 $2 $3 $4 $5 $6 $7 $8 $9 X,Y pos of 4 corners*
0 Add a 4 corners polygon primitive as box body*
4,1,4,$2,$3,$4,$5,$6,$7,$8,$9,$2,$3,0*
0 Add four circle primitives for the rounded corners*
1,1,$1+$1,$2,$3*
1,1,$1+$1,$4,$5*
1,1,$1+$1,$6,$7*
1,1,$1+$1,$8,$9*
0 Add four rect primitives between the rounded corners*
20,1,$1+$1,$2,$3,$4,$5,0*
20,1,$1+$1,$4,$5,$6,$7,0*
20,1,$1+$1,$6,$7,$8,$9,0*
20,1,$1+$1,$8,$9,$2,$3,0*%
G04 Aperture macros list end*
%ADD10RoundRect,0.250000X1.500000X0.550000X-1.500000X0.550000X-1.500000X-0.550000X1.500000X-0.550000X0*%
%ADD11RoundRect,0.250000X-0.550000X1.500000X-0.550000X-1.500000X0.550000X-1.500000X0.550000X1.500000X0*%
%ADD12R,0.900000X2.000000*%
%ADD13R,2.000000X0.900000*%
%ADD14R,5.000000X5.000000*%
%ADD15R,0.700000X1.300000*%
%ADD16R,1.447800X1.651000*%
%ADD17R,1.447800X2.438400*%
%ADD18R,1.854200X1.651000*%
%ADD19RoundRect,0.237500X-0.250000X-0.237500X0.250000X-0.237500X0.250000X0.237500X-0.250000X0.237500X0*%
%ADD20R,5.250000X4.550000*%
%ADD21R,1.100000X4.600000*%
%ADD22RoundRect,0.250000X-1.000000X1.950000X-1.000000X-1.950000X1.000000X-1.950000X1.000000X1.950000X0*%
%ADD23R,3.150000X12.500000*%
%ADD24RoundRect,0.225000X0.225000X0.250000X-0.225000X0.250000X-0.225000X-0.250000X0.225000X-0.250000X0*%
%ADD25R,1.100000X1.100000*%
G04 APERTURE END LIST*
D10*
%TO.C,C6*%
X119600000Y-134370000D03*
X114000000Y-134370000D03*
%TD*%
D11*
%TO.C,C2*%
X97050000Y-108890000D03*
X97050000Y-114290000D03*
%TD*%
D10*
%TO.C,C4*%
X71200000Y-134020000D03*
X65600000Y-134020000D03*
%TD*%
D12*
%TO.C,U1*%
X52070000Y-122800000D03*
X53340000Y-122800000D03*
X54610000Y-122800000D03*
X55880000Y-122800000D03*
X57150000Y-122800000D03*
X58420000Y-122800000D03*
X59690000Y-122800000D03*
X60960000Y-122800000D03*
X62230000Y-122800000D03*
X63500000Y-122800000D03*
X64770000Y-122800000D03*
X66040000Y-122800000D03*
X67310000Y-122800000D03*
X68580000Y-122800000D03*
D13*
X69580000Y-120015000D03*
X69580000Y-118745000D03*
X69580000Y-117475000D03*
X69580000Y-116205000D03*
X69580000Y-114935000D03*
X69580000Y-113665000D03*
X69580000Y-112395000D03*
X69580000Y-111125000D03*
X69580000Y-109855000D03*
X69580000Y-108585000D03*
D12*
X68580000Y-105800000D03*
X67310000Y-105800000D03*
X66040000Y-105800000D03*
X64770000Y-105800000D03*
X63500000Y-105800000D03*
X62230000Y-105800000D03*
X60960000Y-105800000D03*
X59690000Y-105800000D03*
X58420000Y-105800000D03*
X57150000Y-105800000D03*
X55880000Y-105800000D03*
X54610000Y-105800000D03*
X53340000Y-105800000D03*
X52070000Y-105800000D03*
D14*
X59570000Y-115300000D03*
%TD*%
D15*
%TO.C,MICRO_SD1*%
X60250200Y-89743800D03*
X61350200Y-89743800D03*
X62450200Y-89743800D03*
X63550200Y-89743800D03*
X64650200Y-89743800D03*
X65750200Y-89743800D03*
X66850200Y-89743800D03*
X67950200Y-89743800D03*
X69050200Y-89743800D03*
D16*
X70468600Y-88970000D03*
D17*
X70468600Y-79270000D03*
X54643800Y-79270000D03*
D18*
X55418800Y-88970000D03*
%TD*%
D19*
%TO.C,R11*%
X91000000Y-82480000D03*
X92825000Y-82480000D03*
%TD*%
D20*
%TO.C,U2*%
X111255000Y-117800000D03*
X105705000Y-117800000D03*
X111255000Y-122650000D03*
X105705000Y-122650000D03*
D21*
X111880000Y-111075000D03*
X110180000Y-111075000D03*
X108480000Y-111075000D03*
X106780000Y-111075000D03*
X105080000Y-111075000D03*
%TD*%
D19*
%TO.C,R13*%
X74487500Y-82620000D03*
X76312500Y-82620000D03*
%TD*%
D10*
%TO.C,C5*%
X95210000Y-133980000D03*
X89610000Y-133980000D03*
%TD*%
D22*
%TO.C,C1*%
X120545000Y-111245000D03*
X120545000Y-118645000D03*
%TD*%
D23*
%TO.C,L1*%
X109805000Y-95260000D03*
X94455000Y-95260000D03*
%TD*%
D24*
%TO.C,C7*%
X84462500Y-81210000D03*
X82912500Y-81210000D03*
%TD*%
D11*
%TO.C,C3*%
X88160000Y-109070000D03*
X88160000Y-114470000D03*
%TD*%
D24*
%TO.C,C9*%
X100552500Y-81230000D03*
X99002500Y-81230000D03*
%TD*%
%TO.C,C10*%
X76207500Y-81200000D03*
X74657500Y-81200000D03*
%TD*%
D19*
%TO.C,R10*%
X82667500Y-82650000D03*
X84492500Y-82650000D03*
%TD*%
D24*
%TO.C,C8*%
X92705000Y-81170000D03*
X91155000Y-81170000D03*
%TD*%
D25*
%TO.C,D1*%
X109880000Y-105420000D03*
X107080000Y-105420000D03*
%TD*%
D19*
%TO.C,R12*%
X98877500Y-82610000D03*
X100702500Y-82610000D03*
%TD*%
M02*
