M48
; DRILL file {KiCad 9.0.0} date 2025-04-21T14:47:48+0100
; FORMAT={-:-/ absolute / metric / decimal}
; #@! TF.CreationDate,2025-04-21T14:47:48+01:00
; #@! TF.GenerationSoftware,Kicad,Pcbnew,9.0.0
; #@! TF.FileFunction,MixedPlating,1,4
FMAT,2
METRIC
; #@! TA.AperFunction,Plated,PTH,ViaDrill
T1C0.400
; #@! TA.AperFunction,Plated,PTH,ComponentDrill
T2C0.950
; #@! TA.AperFunction,Plated,PTH,ComponentDrill
T3C1.000
; #@! TA.AperFunction,Plated,PTH,ComponentDrill
T4C1.300
; #@! TA.AperFunction,NonPlated,NPTH,ComponentDrill
T5C1.000
; #@! TA.AperFunction,NonPlated,NPTH,ComponentDrill
T6C2.500
%
G90
G05
T1
X58.83Y-94.69
X60.96Y-98.42
X63.48Y-103.06
X66.87Y-92.603
X73.12Y-118.72
X94.498Y-108.722
X95.22Y-125.28
T2
X57.95Y-145.41
X60.45Y-145.41
X62.95Y-145.41
X65.45Y-145.41
X81.86Y-145.53
X84.36Y-145.53
X86.86Y-145.53
X89.36Y-145.53
X106.06Y-145.45
X108.56Y-145.45
X111.06Y-145.45
X113.56Y-145.45
T3
X52.705Y-127.62
X52.705Y-131.43
X52.705Y-133.97
X52.705Y-136.51
X52.705Y-140.32
X55.245Y-127.62
X55.245Y-131.43
X55.245Y-133.97
X55.245Y-136.51
X55.245Y-140.32
X57.785Y-127.62
X57.785Y-140.32
X60.325Y-127.62
X60.325Y-140.32
X62.865Y-127.62
X62.865Y-140.32
X65.405Y-127.62
X65.405Y-140.32
X67.945Y-127.62
X67.945Y-140.32
X70.485Y-127.62
X70.485Y-140.32
X72.49Y-145.49
X74.25Y-78.75
X74.99Y-145.49
X76.75Y-78.75
X76.835Y-127.62
X76.835Y-131.43
X76.835Y-133.97
X76.835Y-136.51
X76.835Y-140.32
X79.375Y-127.62
X79.375Y-131.43
X79.375Y-133.97
X79.375Y-136.51
X79.375Y-140.32
X81.915Y-127.62
X81.915Y-140.32
X82.377Y-78.76
X84.455Y-127.62
X84.455Y-140.32
X84.877Y-78.76
X86.995Y-127.62
X86.995Y-140.32
X89.535Y-127.62
X89.535Y-140.32
X90.502Y-78.77
X92.075Y-127.62
X92.075Y-140.32
X93.002Y-78.77
X94.615Y-127.62
X94.615Y-140.32
X98.675Y-78.8
X100.965Y-127.62
X100.965Y-131.43
X100.965Y-133.97
X100.965Y-136.51
X100.965Y-140.32
X101.175Y-78.8
X103.505Y-127.62
X103.505Y-131.43
X103.505Y-133.97
X103.505Y-136.51
X103.505Y-140.32
X106.045Y-127.62
X106.045Y-140.32
X106.88Y-78.79
X108.585Y-127.62
X108.585Y-140.32
X109.38Y-78.79
X111.125Y-127.62
X111.125Y-140.32
X113.665Y-127.62
X113.665Y-140.32
X115.05Y-78.81
X116.205Y-127.62
X116.205Y-140.32
X117.55Y-78.81
X118.745Y-127.62
X118.745Y-140.32
T4
X95.315Y-146.912
X100.395Y-146.912
T5
X59.508Y-79.039
X67.484Y-79.039
T6
X52.25Y-77.5
X52.5Y-147.5
X122.5Y-77.5
X122.5Y-147.5
M30
